
<svg width="128" height="32" viewBox="0 0 128 32" fill="none" xmlns="http://www.w3.org/2000/svg">
<path d="M16.4061 0C13.2421 0 10.1481 0.938399 7.5171 2.6965C4.8861 4.4546 2.83509 6.9534 1.62409 9.8771C0.413094 12.8007 0.0961054 16.0177 0.714105 19.1214C1.33111 22.2251 2.8551 25.0761 5.0931 27.3137C7.3301 29.5513 10.1811 31.0752 13.2851 31.6926C16.3881 32.3099 19.6061 31.9931 22.5291 30.7821C25.4531 29.5711 27.9521 27.5203 29.7101 24.8891C31.4681 22.2579 32.4061 19.1645 32.4061 16H24.4061C24.4061 17.5823 23.9371 19.129 23.0581 20.4446C22.1791 21.7602 20.9301 22.7855 19.4681 23.391C18.0061 23.9965 16.3971 24.155 14.8461 23.8463C13.2941 23.5376 11.8681 22.7757 10.7491 21.6569C9.63109 20.538 8.8691 19.1126 8.5601 17.5607C8.2511 16.0089 8.4101 14.4003 9.0151 12.9385C9.6211 11.4767 10.6461 10.2273 11.9621 9.3482C13.2771 8.4692 14.8241 8 16.4061 8V0Z" fill="white"/>
<path d="M16.406 0C14.305 0 12.225 0.413899 10.283 1.2179C8.342 2.022 6.578 3.2006 5.093 4.6863C3.607 6.172 2.42799 7.9359 1.62399 9.8771C0.819993 11.8183 0.406006 13.8989 0.406006 16H8.40601C8.40601 14.9494 8.613 13.9091 9.015 12.9385C9.417 11.9679 10.007 11.086 10.749 10.3431C11.492 9.6003 12.374 9.011 13.345 8.609C14.315 8.2069 15.356 8 16.406 8V0Z" fill="#FFBC00"/>
<path d="M16.406 21C19.1674 21 21.406 18.7614 21.406 16C21.406 13.2386 19.1674 11 16.406 11C13.6446 11 11.406 13.2386 11.406 16C11.406 18.7614 13.6446 21 16.406 21Z" fill="#FFBC00"/>
<path d="M21.406 16C21.406 15.3434 21.277 14.6932 21.026 14.0866C20.774 13.48 20.406 12.9288 19.942 12.4645C19.477 12.0002 18.926 11.6319 18.32 11.3806C17.713 11.1293 17.063 11 16.406 11C15.75 11 15.099 11.1293 14.493 11.3806C13.886 11.6319 13.335 12.0002 12.871 12.4645C12.406 12.9288 12.038 13.48 11.787 14.0866C11.536 14.6932 11.406 15.3434 11.406 16H16.406H21.406Z" fill="white"/>
<path d="M45.988 24H43.468L37.762 15.378V24H35.242V11.418H37.762L43.468 20.058V11.418H45.988V24ZM52.9063 24.162C51.9463 24.162 51.0823 23.952 50.3143 23.532C49.5463 23.1 48.9403 22.494 48.4963 21.714C48.0643 20.934 47.8483 20.034 47.8483 19.014C47.8483 17.994 48.0703 17.094 48.5143 16.314C48.9703 15.534 49.5883 14.934 50.3683 14.514C51.1483 14.082 52.0183 13.866 52.9783 13.866C53.9383 13.866 54.8083 14.082 55.5883 14.514C56.3683 14.934 56.9803 15.534 57.4243 16.314C57.8803 17.094 58.1083 17.994 58.1083 19.014C58.1083 20.034 57.8743 20.934 57.4063 21.714C56.9503 22.494 56.3263 23.1 55.5343 23.532C54.7543 23.952 53.8783 24.162 52.9063 24.162ZM52.9063 21.966C53.3623 21.966 53.7883 21.858 54.1843 21.642C54.5923 21.414 54.9163 21.078 55.1563 20.634C55.3963 20.19 55.5163 19.65 55.5163 19.014C55.5163 18.066 55.2643 17.34 54.7603 16.836C54.2683 16.32 53.6623 16.062 52.9423 16.062C52.2223 16.062 51.6163 16.32 51.1243 16.836C50.6443 17.34 50.4043 18.066 50.4043 19.014C50.4043 19.962 50.6383 20.694 51.1063 21.21C51.5863 21.714 52.1863 21.966 52.9063 21.966ZM64.1148 21.678L66.6348 14.028H69.3168L65.6268 24H62.5668L58.8948 14.028H61.5948L64.1148 21.678ZM70.0842 18.978C70.0842 17.97 70.2822 17.076 70.6782 16.296C71.0862 15.516 71.6322 14.916 72.3162 14.496C73.0122 14.076 73.7862 13.866 74.6382 13.866C75.3822 13.866 76.0302 14.016 76.5822 14.316C77.1462 14.616 77.5962 14.994 77.9322 15.45V14.028H80.4702V24H77.9322V22.542C77.6082 23.01 77.1582 23.4 76.5822 23.712C76.0182 24.012 75.3642 24.162 74.6202 24.162C73.7802 24.162 73.0122 23.946 72.3162 23.514C71.6322 23.082 71.0862 22.476 70.6782 21.696C70.2822 20.904 70.0842 19.998 70.0842 18.978ZM77.9322 19.014C77.9322 18.402 77.8122 17.88 77.5722 17.448C77.3322 17.004 77.0082 16.668 76.6002 16.44C76.1922 16.2 75.7542 16.08 75.2862 16.08C74.8182 16.08 74.3862 16.194 73.9902 16.422C73.5942 16.65 73.2702 16.986 73.0182 17.43C72.7782 17.862 72.6582 18.378 72.6582 18.978C72.6582 19.578 72.7782 20.106 73.0182 20.562C73.2702 21.006 73.5942 21.348 73.9902 21.588C74.3982 21.828 74.8302 21.948 75.2862 21.948C75.7542 21.948 76.1922 21.834 76.6002 21.606C77.0082 21.366 77.3322 21.03 77.5722 20.598C77.8122 20.154 77.9322 19.626 77.9322 19.014Z" fill="white"/>
<path d="M90.0595 17.556C90.7675 17.688 91.3495 18.042 91.8055 18.618C92.2615 19.194 92.4895 19.854 92.4895 20.598C92.4895 21.27 92.3215 21.864 91.9855 22.38C91.6615 22.884 91.1875 23.28 90.5635 23.568C89.9395 23.856 89.2015 24 88.3495 24H82.9315V11.436H88.1155C88.9675 11.436 89.6995 11.574 90.3115 11.85C90.9355 12.126 91.4035 12.51 91.7155 13.002C92.0395 13.494 92.2015 14.052 92.2015 14.676C92.2015 15.408 92.0035 16.02 91.6075 16.512C91.2235 17.004 90.7075 17.352 90.0595 17.556ZM85.4515 16.62H87.7555C88.3555 16.62 88.8175 16.488 89.1415 16.224C89.4655 15.948 89.6275 15.558 89.6275 15.054C89.6275 14.55 89.4655 14.16 89.1415 13.884C88.8175 13.608 88.3555 13.47 87.7555 13.47H85.4515V16.62ZM87.9895 21.948C88.6015 21.948 89.0755 21.804 89.4115 21.516C89.7595 21.228 89.9335 20.82 89.9335 20.292C89.9335 19.752 89.7535 19.332 89.3935 19.032C89.0335 18.72 88.5475 18.564 87.9355 18.564H85.4515V21.948H87.9895ZM93.8499 18.978C93.8499 17.97 94.0479 17.076 94.4439 16.296C94.8519 15.516 95.3979 14.916 96.0819 14.496C96.7779 14.076 97.5519 13.866 98.4039 13.866C99.1479 13.866 99.7959 14.016 100.348 14.316C100.912 14.616 101.362 14.994 101.698 15.45V14.028H104.236V24H101.698V22.542C101.374 23.01 100.924 23.4 100.348 23.712C99.7839 24.012 99.1299 24.162 98.3859 24.162C97.5459 24.162 96.7779 23.946 96.0819 23.514C95.3979 23.082 94.8519 22.476 94.4439 21.696C94.0479 20.904 93.8499 19.998 93.8499 18.978ZM101.698 19.014C101.698 18.402 101.578 17.88 101.338 17.448C101.098 17.004 100.774 16.668 100.366 16.44C99.9579 16.2 99.5199 16.08 99.0519 16.08C98.5839 16.08 98.1519 16.194 97.7559 16.422C97.3599 16.65 97.0359 16.986 96.7839 17.43C96.5439 17.862 96.4239 18.378 96.4239 18.978C96.4239 19.578 96.5439 20.106 96.7839 20.562C97.0359 21.006 97.3599 21.348 97.7559 21.588C98.1639 21.828 98.5959 21.948 99.0519 21.948C99.5199 21.948 99.9579 21.834 100.366 21.606C100.774 21.366 101.098 21.03 101.338 20.598C101.578 20.154 101.698 19.626 101.698 19.014ZM112.223 13.884C113.411 13.884 114.371 14.262 115.103 15.018C115.835 15.762 116.201 16.806 116.201 18.15V24H113.681V18.492C113.681 17.7 113.483 17.094 113.087 16.674C112.691 16.242 112.151 16.026 111.467 16.026C110.771 16.026 110.219 16.242 109.811 16.674C109.415 17.094 109.217 17.7 109.217 18.492V24H106.697V14.028H109.217V15.27C109.553 14.838 109.979 14.502 110.495 14.262C111.023 14.01 111.599 13.884 112.223 13.884ZM124.501 24L121.117 19.752V24H118.597V10.68H121.117V18.258L124.465 14.028H127.741L123.349 19.032L127.777 24H124.501Z" fill="#FFBC00"/>
</svg>

